{
  "accessors": [
    {
      "bufferView": 1,
      "componentType": 5126,
      "count": 15708,
      "max": [
        75.097999572753906,
        99.305000305175781,
        170
      ],
      "min": [
        -140,
        -31.843000411987305,
        108.24600219726562
      ],
      "type": "VEC3"
    },
    {
      "bufferView": 1,
      "byteOffset": 188496,
      "componentType": 5126,
      "count": 15708,
      "max": [
        0.99999940395355225,
        0.92391049861907959,
        0.99995303153991699
      ],
      "min": [
        -0.99999946355819702,
        -0.92391055822372437,
        -0.99995499849319458
      ],
      "type": "VEC3"
    },
    {
      "bufferView": 0,
      "componentType": 5125,
      "count": 88908,
      "max": [
        15707
      ],
      "min": [
        0
      ],
      "type": "SCALAR"
    }
  ],
  "asset": {
    "extras": {
      "author": "jamack3 (https://sketchfab.com/jamack3)",
      "license": "CC-BY-4.0 (http://creativecommons.org/licenses/by/4.0/)",
      "source": "https://sketchfab.com/3d-models/tinker-129814e20c8a439cb86ac53a763c013b",
      "title": "Tinker"
    },
    "generator": "Sketchfab-9.52.0",
    "version": "2.0"
  },
  "bufferViews": [
    {
      "buffer": 0,
      "byteLength": 355632,
      "byteOffset": 0,
      "name": "floatBufferViews",
      "target": 34963
    },
    {
      "buffer": 0,
      "byteLength": 376992,
      "byteOffset": 355632,
      "byteStride": 12,
      "name": "floatBufferViews",
      "target": 34962
    }
  ],
  "buffers": [
    {
      "byteLength": 732624,
      "uri": "scene.bin"
    }
  ],
  "materials": [
    {
      "doubleSided": true,
      "emissiveFactor": [
        0,
        0,
        0
      ],
      "name": "color_14093196",
      "pbrMetallicRoughness": {
        "baseColorFactor": [
          0.84313700000000003,
          0.043137300000000003,
          0.54901999999999995,
          1
        ],
        "metallicFactor": 0,
        "roughnessFactor": 1
      }
    }
  ],
  "meshes": [
    {
      "primitives": [
        {
          "attributes": {
            "NORMAL": 1,
            "POSITION": 0
          },
          "indices": 2,
          "material": 0,
          "mode": 4
        }
      ]
    }
  ],
  "nodes": [
    {
      "children": [
        1
      ],
      "name": "RootNode (gltf orientation matrix)",
      "rotation": [
        -0.70710678118654746,
        -0,
        -0,
        0.70710678118654757
      ]
    },
    {
      "children": [
        2
      ],
      "name": "RootNode (model correction matrix)"
    },
    {
      "children": [
        3
      ],
      "name": "tinker.obj.cleaner.materialmerger.gles"
    },
    {
      "mesh": 0,
      "name": ""
    }
  ],
  "scene": 0,
  "scenes": [
    {
      "name": "OSG_Scene",
      "nodes": [
        0
      ]
    }
  ]
}

